<svg version="1.1" xmlns="http://www.w3.org/2000/svg" xmlns:xlink="http://www.w3.org/1999/xlink" x="0px" y="0px" viewBox="0 0 256 256" enable-background="new 0 0 256 256" xml:space="preserve">
    <g transform="translate(256, 0) scale(-1, 1)">
        <path fill="#000000" d="M128,70.6c-31.7,0-57.4,22-57.4,49.2c0,16.7,9.7,31.4,24.5,40.2l-0.3,19l19.3-11.6c4.5,0.9,9.1,1.5,13.8,1.5c31.7,0,57.4-22,57.4-49.2C185.4,92.6,159.7,70.6,128,70.6z M95.2,128c-4.5,0-8.2-3.7-8.2-8.2c0-4.5,3.7-8.2,8.2-8.2c4.5,0,8.2,3.7,8.2,8.2C103.4,124.3,99.8,128,95.2,128z M128,128c-4.5,0-8.2-3.7-8.2-8.2c0-4.5,3.7-8.2,8.2-8.2s8.2,3.7,8.2,8.2C136.2,124.3,132.5,128,128,128z M160.8,128c-4.5,0-8.2-3.7-8.2-8.2c0-4.5,3.7-8.2,8.2-8.2s8.2,3.7,8.2,8.2C169,124.3,165.3,128,160.8,128z"/>
    </g>
</svg>
