<?xml version="1.0" standalone="no"?>
<!DOCTYPE svg PUBLIC "-//W3C//DTD SVG 20010904//EN"
 "http://www.w3.org/TR/2001/REC-SVG-20010904/DTD/svg10.dtd">
<svg version="1.0" xmlns="http://www.w3.org/2000/svg"
 width="50.000000pt" height="50.000000pt" viewBox="0 0 50.000000 50.000000"
 preserveAspectRatio="xMidYMid meet">

<g transform="translate(0.000000,50.000000) scale(0.100000,-0.100000)"
fill="#000000" stroke="none">
<path d="M0 416 c0 -15 233 -206 251 -206 20 0 248 186 248 203 1 16 -17 17
-249 17 -210 0 -250 -2 -250 -14z"/>
<path d="M0 221 l0 -151 250 0 250 0 0 151 c0 120 -3 149 -12 142 -7 -5 -58
-45 -113 -88 -55 -43 -106 -82 -112 -88 -9 -6 -46 17 -125 80 -62 49 -119 92
-125 97 -10 6 -13 -26 -13 -143z"/>
</g>
</svg>
